<svg width="485" height="501" viewBox="0 0 485 501" fill="none" xmlns="http://www.w3.org/2000/svg">
<path d="M232.938 261.418C235.108 255.958 236.887 251.439 240.121 247.753C244.575 242.675 247.929 242.958 251.533 248.485C257.818 258.127 258.916 269.004 258.483 280.001C257.639 301.456 262.036 322.689 261.441 344C260.804 366.843 267.314 389.415 263.102 412.315C261.924 418.718 259.015 424.552 256.247 429.976C253.909 434.555 248.411 430.4 245.251 428.015C242.284 425.777 241.078 422.518 238.067 428.372C235.735 432.906 227.593 431.718 224.865 427.03C223.44 424.581 222.193 422.14 219.58 420.766C214.75 426.393 201.077 426.125 196.153 419.596C192.426 414.655 187.118 410.4 186.873 402.124C182.116 406.711 177.778 410.66 173.675 402.976C173.154 402.001 170.76 401.175 169.612 401.524C160.9 404.177 153.858 398.836 146.131 396.916C132.597 393.552 121.666 386.244 114.027 374.512C106.5 362.952 100.578 351.304 101.943 336.298C103.122 323.339 101.647 310.053 100.672 296.908C99.2996 278.409 100.48 259.86 101.822 241.361C102.049 238.23 101.979 234.628 106.195 234.657C109.61 234.68 111.496 237.499 112.248 240.652C113.844 247.337 115.204 254.088 119.954 259.465C120.274 259.828 120.726 260.073 121.479 260.651C124.236 255.881 123.938 249.901 128.136 245.764C134.163 239.825 140.323 240.888 143.438 248.876C147.153 258.403 147.153 258.403 155.086 264.765C156.685 258.031 159.192 251.454 167.398 251.792C176.275 252.158 178.951 258.872 178.834 267.806C184.661 263.985 189.206 263.957 192.609 269.504C193.38 270.76 194.514 271.122 195.712 269.902C196.068 269.539 196.365 268.797 196.705 268.786C206.079 268.51 211.201 262.068 217.341 256.112C222.93 250.69 228.485 255.006 232.938 261.418ZM252.957 126.984C252.166 121.233 251.805 115.298 252.274 109.526C253.371 96.0288 245.592 90.5931 232.325 85.5962C230.517 84.9154 228.418 84.2354 227.277 85.4792C222.496 90.6885 215.283 94.8266 213.825 101.706C210.46 117.575 208.456 133.754 206.392 149.87C205.048 160.361 203.315 171.045 204.011 181.492C204.928 195.255 199.643 210.453 212.555 222.18C217.596 226.758 222.653 228.353 227.452 223.635C233.047 218.136 238.168 216.679 245.722 218.148C248.136 218.617 249.23 216.354 250.51 214.913C257.682 206.841 260.306 197.81 258.43 186.791C256.048 172.797 255.088 158.56 253.711 146.198C255.024 138.478 253.756 132.78 252.957 126.984Z" fill="#93ABB8"/>
<path d="M428.856 216.564C423.605 212.589 419.101 207.639 414.144 203.259C393.535 185.046 373.122 166.598 352.145 148.818C340.201 138.695 329.187 126.927 314.004 121.405C304.194 117.837 293.956 115.743 283.446 114.887C270.791 113.856 270.571 113.304 270.747 100.781C270.798 97.2185 270.467 93.6399 270.695 90.0937C271.037 84.7901 268.642 82.0693 263.589 81.4532C264.783 77.232 263.721 74.897 258.716 75.1948C254.677 75.4351 250.609 75.2338 246.555 75.1677C235.241 74.9826 229.809 84.1683 222.504 90.332C221.974 90.78 221.802 92.7183 222.199 93.0321C225.206 95.4064 222.85 98.2418 223.069 100.811C221.547 99.0798 220.198 96.2952 217.601 99.7627C216.393 101.374 215.112 101.381 213.655 100.602C206.966 97.0262 199.246 98.0753 192.206 95.5852C182.553 92.1705 174.662 94.8986 167.039 102.679C147.434 122.693 127.334 142.149 109.232 163.65C90.5096 185.889 72.585 208.635 56.8379 233.066C51.7749 240.921 52.3088 241.924 60.9267 245.654C70.5843 249.835 81.0357 251.102 90.9717 254.232C93.3535 254.982 95.9904 255.025 96.1213 258.67C96.7242 275.429 96.1825 292.192 96.8485 308.974C97.4515 324.177 97.6576 339.378 99.4101 354.508C99.6447 356.536 100.61 359.055 102.848 358.927C105.31 358.786 105.306 356.128 105.236 354.104C104.947 345.701 104.551 337.302 104.278 328.898C103.557 306.743 102.917 284.585 102.148 262.431C102.02 258.759 102.757 257.533 106.86 258.601C131.742 265.078 156.643 271.502 181.647 277.49C196.255 280.988 210.156 288.542 225.984 285.776C226.951 285.607 228.678 286.499 229.162 287.384C232.63 293.723 235.106 290.371 238.08 286.87C242.747 281.377 245.804 274.566 251.958 269.311C251.317 279.794 250.589 289.429 250.164 299.077C248.547 335.84 255.241 372.213 255.414 408.897C255.423 410.882 255.094 413.396 258.044 413.492C260.981 413.588 260.92 410.633 261.024 409.029C261.609 399.892 262.658 390.668 261.978 381.591C260.115 356.668 258.93 331.746 258.157 306.762C257.704 292.101 261.905 277.018 255.483 262.655C255.17 261.954 256.424 260.458 257.092 259.425C277.425 228.008 297.775 196.601 315.926 163.444C336.365 183.686 358.268 201.974 380.807 219.479C385.303 222.97 387.462 226.371 387.408 232.053C387.255 248.269 386.465 264.452 386.868 280.714C387.677 313.333 384.331 346.029 388.557 378.603C388.875 381.059 388.334 382.353 385.713 382.932C379.272 384.355 372.9 386.093 366.474 387.59C364.092 388.145 361.789 388.408 362.308 384.543C364.025 371.762 361.274 359.143 360.595 346.456C360.037 336.056 358.854 325.632 353.38 316.241C345.658 302.993 334.692 296.506 322.393 298.316C310.509 300.066 300.487 309.395 298.394 321.826C293.564 350.521 291.367 379.377 295.798 408.34C296.315 411.723 295.795 412.574 292.825 413.746C279.131 419.146 265.581 424.91 251.937 430.439C249.917 431.257 247.903 432.801 245.433 431.44C232.06 424.068 217.259 420.239 203.191 414.585C178.898 404.821 155.984 392.102 131.896 381.938C121.811 377.682 111.584 373.766 99.8425 369.064C103.348 376.511 108.652 379.182 113.696 381.743C129.351 389.691 145.039 397.602 160.984 404.942C185.657 416.299 210.464 427.378 235.421 438.092C241.073 440.519 247.233 442.296 253.925 439.752C274.791 431.818 295.669 423.86 316.83 416.773C340.943 408.699 364.687 399.707 388.284 390.287C393.263 388.3 397.649 388.48 395.243 378.785C391.67 364.383 393.135 348.517 393.799 333.333C394.555 316.086 395.12 298.752 393.815 281.674C392.597 265.745 393.194 249.571 389.694 233.798C389.38 232.38 390.287 230.105 391.409 229.111C392.663 227.999 394.177 229.714 395.278 230.592C401.317 235.41 408.387 238.424 415.044 242.163C416.641 243.06 418.457 244.439 419.951 243.626C425.364 240.681 430.673 236.969 432.553 230.972C434.113 225.99 434.217 220.622 428.856 216.564ZM84.8918 227.801C85.2279 221.171 94.8706 207.469 104.823 200.047C98.6234 210.929 91.9939 219.263 84.8918 227.801ZM250.651 82.501C254.728 82.9209 258.945 81.9866 263.119 81.6025C261.133 82.9867 259.09 84.2975 257.196 85.7967C244.456 95.8762 244.469 95.8911 225.624 94.9137C234.263 89.2084 239.871 81.3918 250.651 82.501ZM252.881 204.128C243.341 199.868 240.19 208.191 235.481 212.932C232.466 215.969 230.369 219.713 225.774 215.232C224.48 213.971 223.003 214.887 221.556 215.5C219.248 216.478 218.065 215.601 218.66 213.063C221.078 202.77 219.44 192.296 220.008 181.915C221.477 155.084 222.255 128.216 223.306 101.362C228.319 103.767 233.666 102.952 238.794 102.366C244.691 101.692 246.366 103.168 246.197 109.471C245.441 137.657 246.637 165.784 250.334 193.787C250.855 197.728 252.008 200.309 255.814 201.309C255.174 202.7 254.301 204.763 252.881 204.128ZM266.24 186.092C262.783 191.044 259.378 196.033 255.978 201.031C254.376 196.431 256.062 191.758 255.798 187.107C254.43 163 254.012 138.816 251.819 114.79C250.814 103.773 254.282 96.735 263.792 91.2148C265.33 95.0492 264.637 99.0568 264.3 102.864C261.981 129.09 263.062 155.174 267.277 181.134C267.597 183.102 267.313 184.555 266.24 186.092ZM338.796 356.39C335.972 356.439 331.856 354.611 332.697 350.237C333.483 346.14 334.414 341.105 339.972 341.136C343.97 341.158 345.457 344.94 346.843 347.649C345.572 352.539 343.219 356.313 338.796 356.39Z" fill="#545454"/>
</svg>
