<svg width="485" height="501" viewBox="0 0 485 501" fill="none" xmlns="http://www.w3.org/2000/svg">
<path d="M412.174 151.569C406.344 163.396 403.83 175.934 400.729 188.535C394.968 211.937 388.424 235.203 380.964 258.134C374.686 277.435 372.1 297.42 367.464 317.009C360.315 347.22 351.936 377.037 340.696 406.04C338.463 411.801 336.091 417.676 331.859 422.11C328.178 425.968 327.315 434.428 318.157 431.396C316.799 430.946 313.93 434.903 311.77 436.832C308.809 439.475 312.136 441.293 312.715 443.45C313.342 445.786 312.5 447.716 311.204 449.498C305.767 456.973 295.605 460.027 286.762 456.61C276.036 452.465 268.677 444.602 263.305 434.849C261.357 431.311 259.864 427.467 264.538 424.439C265.377 423.896 266.352 422.802 266.389 421.926C267.199 402.816 279.896 388.717 288.141 372.881C298.035 353.876 306.233 334.314 312.795 314.039C315.473 305.768 316.377 296.948 316.267 288.463C315.875 258.261 321.987 229.07 328.739 199.915C329.377 197.159 330.8 194.497 328.885 190.133C324.617 199.52 320.225 207.727 317.079 216.374C307.349 243.113 298.097 270.021 288.652 296.86C288.172 298.221 286.853 299.798 287.205 300.865C290.814 311.8 283.346 320.046 280.1 329.18C270.558 356.026 260.342 382.64 250.708 409.455C248.193 416.454 244.827 423.058 243.144 430.524C241.17 439.283 226.453 444.89 217.632 441.807C212.629 440.058 208.181 437.166 205.696 432.74C202.365 426.809 198.554 424.08 191.75 427.021C189.01 428.205 187.564 426.317 187.183 423.997C186.538 420.079 186.09 416.055 188.537 412.474C194.963 403.074 198.419 392.421 201.719 381.749C208.201 360.786 218.11 340.803 221.223 318.907C222.736 308.266 230.201 304.52 238.747 302.398C247.039 300.339 254.183 296.143 261.681 292.628C264.235 291.431 266.051 290.006 269.349 289.931C275.461 289.792 278.678 285.158 276.648 279.659C272.565 268.605 271.087 256.783 264.754 246.318C260.124 238.666 259.114 229.305 257.924 220.451C256.742 211.648 262.134 204.987 268.873 197.472C261.398 200.171 255.716 202.325 249.96 204.264C246.064 205.577 242.635 204.903 240.741 200.869C239.052 197.27 240.663 194.314 243.597 192.433C257.957 183.226 269.157 169.666 286.425 162.627C274.613 150.17 278.638 136.965 284.399 123.68C286.409 119.045 288.128 114.289 290.113 109.644C291.389 106.656 294.349 105.712 296.211 108.003C309.26 124.06 328.715 126.214 346.905 130.541C360.711 133.825 374.973 135.247 389.024 137.544C393.114 138.213 397.021 136.896 401.027 136.682C412.668 136.059 417.151 141.476 412.174 151.569ZM204.24 106.971C204.646 102.399 202.344 100.865 198.247 102.985C192.397 106.013 187.428 110.294 182.867 114.969C177.505 120.464 171.388 125.005 164.755 128.81C152.592 135.787 142.543 135.037 131.575 126.431C127.876 123.53 124.542 120.181 121.005 117.078C119.248 115.537 117.222 114.724 115.093 116.248C113.53 117.366 113.293 118.863 113.679 120.917C116.408 135.421 123.952 146.854 136.049 155.358C140.054 158.174 144.893 158.501 150.537 158.478C154.483 158.332 159.082 157.414 163.509 155.56C178.887 149.122 190.044 137.962 198.688 124.308C201.943 119.166 203.696 113.108 204.24 106.971ZM102.569 209.654C93.6703 208.385 85.3902 205.39 76.7582 203.454C69.7364 201.88 67.5326 204.313 69.79 210.237C73.0426 218.77 87.008 227.685 99.036 228.402C99.3758 228.373 100.591 228.352 101.771 228.158C108.023 227.131 114.791 221.975 114.904 218.202C115.023 214.253 110.727 210.817 102.569 209.654Z" fill="#176BFD"/>
<path d="M402.409 117.409C396.494 114.587 390.438 111.93 384.212 109.89C360.845 102.238 336.549 98.832 312.278 95.5651C307.009 94.8557 301.412 95.3184 296.011 96.9438C291.764 98.2219 289.242 100.185 287.824 104.553C284.156 115.845 278.558 126.539 277.171 138.532C276.959 140.36 276.476 142.059 274.364 142.758C266.916 133.519 259.601 124.126 251.926 115.029C246.306 108.369 240.38 101.012 231.142 100.131C218.993 98.9734 206.436 90.7621 194.414 100.845C193.768 101.388 192.374 101.217 191.345 101.142C181.136 100.404 170.929 99.6367 160.726 98.8233C159.045 98.6893 156.704 99.2594 156.331 96.8316C155.959 94.4115 155.47 91.6238 158.055 89.9562C159.549 88.993 161.372 88.5204 163.058 87.8531C166.826 86.3619 170.399 84.4528 173.248 81.6255C179.113 75.804 180.171 66.9322 175.848 61.9779C169.227 54.3915 151.795 56.7579 145.911 66.0347C147.493 67.7023 149.282 66.8885 150.954 66.3394C155.86 64.7275 160.795 63.4266 166.026 64.4272C172.048 65.5792 173.212 68.4469 169.8 73.5395C167.276 77.3067 163.78 79.9492 159.49 81.2476C152.168 83.4634 148.093 87.4705 149.953 95.5467C150.792 99.193 148.922 101.673 146.103 103.816C143.5 105.795 141.12 108.057 138.635 110.187C133.768 114.359 128.565 117.44 121.754 115.078C118.255 113.864 115.622 114.979 113.032 117.479C111.249 119.2 108.939 120.753 106.58 121.477C89.3838 126.754 82.0441 140.077 78.1655 155.75C74.006 172.557 71.5343 189.707 68.9822 206.828C68.3734 210.913 69.6104 213.496 72.2556 216.418C78.7512 223.594 87.6281 227.839 96.3196 228.192C111.41 228.805 115.948 237.286 118.069 249.451C118.44 251.575 119.113 253.649 119.482 255.774C122.591 273.718 120.625 291.679 119.57 309.631C119.083 317.911 117.979 326.199 119.279 334.468C120.475 342.078 124.928 346.512 132.499 346.241C138.964 346.009 145.418 345.807 151.968 343.993C171.166 338.675 188.954 330.567 206.035 320.653C209.255 318.784 212.37 316.083 217.127 316.707C216.678 318.844 216.503 320.248 216.086 321.579C206.378 352.539 197.937 383.929 184.242 413.544C182.818 416.624 181.628 419.052 184.431 422.318C196.604 436.503 227.077 442.611 243.277 433.869C246.391 432.189 248.116 429.784 248.863 426.333C253.528 404.766 261.257 384.102 269.362 363.671C277.637 342.814 281.398 320.242 294.53 301.166C300.873 291.951 304.697 281.275 307.999 270.563C308.664 268.407 309.34 266.291 312.411 264.553C309.636 281.632 307.308 297.626 304.39 313.515C300.708 333.562 291.503 351.734 283.359 370.199C276.498 385.756 270.981 401.803 264.537 417.503C262.151 423.317 262.811 428.524 266.697 433.707C277.301 447.851 299.622 454.205 316.095 447.51C318.9 446.37 321.589 445.267 321.365 441.585C320.953 434.807 324.261 429.099 326.984 423.29C347.094 380.381 363.244 335.98 377.687 290.99C383.969 271.422 387.511 250.97 394.288 231.594C401.469 211.059 405.283 189.776 411.229 168.994C413.989 159.347 415.743 149.295 415.768 139.091C415.792 129.108 411.488 121.74 402.409 117.409ZM397.379 128.761C400.044 129.537 402.975 129.643 406.002 132.123C402.797 134.509 399.924 133.758 397.204 133.827C395.31 133.875 393.607 133.376 393.704 131.004C393.803 128.574 395.464 128.204 397.379 128.761ZM358.815 127.448C359.163 124.804 361.126 125.464 362.902 125.628C369.022 126.193 375.143 126.766 381.274 127.165C383.573 127.315 385.761 127.172 385.433 130.408C385.167 133.032 383.563 134.08 381.038 134.022C379.952 133.996 378.867 133.916 377.375 133.84C372.281 133.838 367.039 132.321 361.731 131.181C359.678 130.74 358.54 129.539 358.815 127.448ZM351.133 122.976C353.107 123.31 354.567 124.077 354.22 126.34C353.975 127.933 352.805 128.906 351.31 128.798C349.244 128.65 348.408 127.14 348.338 125.167C348.265 123.101 349.849 123.22 351.133 122.976ZM313.037 114.976C314.029 112.098 316.094 112.655 318.343 113.389C325.616 115.761 332.904 118.091 340.23 120.297C342.391 120.948 344.776 121.212 343.829 124.271C343.002 126.944 340.708 126.892 337.501 126.443C330.913 124.993 323.388 123.484 316.17 120.782C313.282 119.7 312.014 117.942 313.037 114.976ZM295.812 103.301C299.368 103.024 306.196 107.701 305.937 110.17C305.684 112.584 304.842 115.902 301.87 115.274C298.296 114.518 293.738 113.74 292.88 109.04C292.43 106.576 293.36 104.185 295.812 103.301ZM284.668 130.046C286.632 125.515 288.493 120.941 290.672 115.731C301.127 121.923 312.225 124.98 322.431 130.203C320.558 134.828 316.822 136.609 312.991 137.26C304.729 138.666 296.429 138.464 288.251 136.069C284.888 135.084 283.07 133.732 284.668 130.046ZM150.505 107.749C152.988 105.189 156.234 104.874 159.657 105.218C169.849 106.245 180.068 106.151 191.117 105.466C182.176 135.397 154.467 146.486 133.273 120.813C138.941 116.365 145.448 112.961 150.505 107.749ZM124.313 121.108C128.831 124.749 133.135 128.647 137.495 132.476C148.707 142.321 160.853 145.44 174.59 137.599C175.837 136.887 177.225 136.402 178.581 135.897C178.8 135.816 179.192 136.184 180.194 136.698C164.829 149.794 152.528 147.925 138.848 139.39C130.771 134.351 124.287 127.571 118.774 119.84C121.68 117.232 122.966 120.022 124.313 121.108ZM72.4552 209.54C75.9914 206.196 78.0337 208.926 80.0849 209.678C87.1771 212.279 93.9326 216.378 101.771 215.838C108.301 215.388 108.499 219.307 109.072 225.474C94.7666 222.608 81.9622 220.171 72.4552 209.54ZM393.751 212.453C385.342 233.337 379.892 255.07 374.755 276.698C364.617 319.387 347.87 359.509 330.273 399.453C325.033 411.347 320.195 423.407 316.703 435.958C314.654 443.318 312.793 445.035 305.338 444.956C293.331 444.829 282.157 442.005 273.266 433.202C267.336 427.331 266.797 425.785 270.286 418.131C283.462 389.22 295.398 359.801 306.555 330.1C309.683 321.776 310.376 312.547 312.029 303.705C317.86 272.509 323.222 241.237 326.736 209.692C327.386 203.858 329.753 198.58 331.395 193.065C332.505 189.333 334.281 185.693 333.197 181.718C332.338 181.418 331.48 181.118 330.622 180.818C326.695 189.454 322.148 197.876 318.976 206.774C313.048 223.405 308.485 240.516 302.343 257.063C288.037 295.6 273.134 333.921 258.467 372.328C252.647 387.571 249.165 403.41 246.011 419.34C244.16 428.69 242.49 430.038 233.008 430.445C216.475 431.153 201.28 427.188 187.466 418.19C203.383 392.329 210.222 363.545 218.166 335.164C219.137 331.694 219.904 328.137 220.386 324.571C221.617 315.474 226.234 309.998 235.481 307.016C246.54 303.449 257.109 298.371 267.785 293.714C271.321 292.172 275.257 290.733 276.751 286.722C275.509 284.133 273.382 284.787 271.913 285.093C255.825 288.449 239.687 291.63 223.734 295.537C205.65 299.965 190.81 310.909 175.354 320.437C162.224 328.532 148.863 335.688 133.143 337.552C124.57 338.569 123.409 338.134 124.093 329.413C125.079 316.828 124.778 304.124 126.294 291.658C129.141 268.255 125.856 245.776 119.481 223.343C115.646 209.848 110.976 196.507 109.45 182.435C109.259 180.677 108.45 178.976 107.863 177.271C107.358 175.805 106.309 174.709 104.727 174.669C102.381 174.611 101.834 176.397 101.582 178.252C100.396 187.002 102.365 195.44 104.281 203.872C104.75 205.938 105.831 207.909 104.611 210.998C94.8482 210.632 86.4305 205.277 77.3012 202.439C74.4924 201.565 74.8909 199.197 75.3244 197.05C78.2489 182.571 80.7368 167.961 85.2996 153.89C88.9582 142.607 95.5077 133.303 106.858 127.774C114.686 123.96 114.41 123.688 120.097 129.924C125.472 135.818 130.745 141.825 137.699 146.112C153.833 156.061 166.06 154.868 181.297 143.999C191.792 136.514 197.748 125.807 201.28 113.719C201.987 111.297 202.477 108.808 202.963 106.33C203.796 102.09 205.897 100.294 210.624 101.122C227.953 104.155 243.869 108.97 253.982 125.136C258.55 132.438 264.372 139.028 269.03 146.395C273.47 153.418 278.572 160.036 283.624 167.172C274.681 175.378 265.034 182.395 255.126 189.061C250.939 191.878 249.492 189.357 248.533 185.489C245.828 174.579 241.464 164.283 235.779 154.56C234.42 152.235 233.703 149.002 229.998 148.876C229.751 149.583 229.138 150.405 229.346 150.872C240.124 175.048 244.688 201.188 253.714 225.868C260.027 243.13 268.191 259.765 278.771 275.058C279.785 276.524 280.55 278.263 282.926 278.937C284.803 275.904 282.489 273.626 281.174 271.476C272.247 256.881 266.169 241.012 259.785 225.292C256.409 216.981 260.927 204.293 268.756 199.18C276.408 194.183 283.864 188.981 289.414 181.608C294.294 175.126 294.132 170.671 288.874 164.299C287.029 162.064 285.251 159.772 283.351 157.584C278.786 152.328 277.826 146.819 282.452 140.296C288.61 142.064 294.998 144.386 301.857 144.8C311.577 145.387 320.468 143.824 325.821 135.042C329.342 129.265 333.461 132.436 337.232 133.366C342.243 134.603 339.196 138.624 339.348 141.517C339.542 145.205 335.215 151.089 339.66 152.04C345.071 153.197 344.504 146.18 345.183 142.466C346.187 136.982 347.721 134.352 353.714 137.382C355.55 138.31 357.994 138.031 360.141 138.407C367.419 139.68 367.688 139.748 366.281 147.172C365.441 151.601 366.727 155.024 369.615 158.025C375.081 163.702 381.816 167.157 389.702 168.227C394.032 168.815 398.401 169.124 403.439 169.627C402.321 184.562 399.184 198.959 393.751 212.453ZM285.449 171.594C286.614 170.245 287.863 170.513 289.111 171.719C290.508 173.07 290.024 174.047 288.86 175.253C278.995 185.481 267.312 192.953 253.623 197.526C264.446 189.094 276.379 182.099 285.449 171.594ZM406.525 159.647C406.213 162.309 404.412 163.159 401.816 162.685C394.279 161.311 386.58 160.52 379.594 157.096C377.661 156.149 375.873 154.848 374.173 153.517C371.109 151.118 371.473 147.862 372.19 144.594C373.067 140.591 376.27 141.15 379.149 141.263C389.04 141.65 398.735 139.99 408.976 138.421C410.54 146.512 407.314 152.931 406.525 159.647ZM354.057 158.346C353.691 161.274 353.012 164.389 349.036 165.012C347.868 165.195 347.026 163.908 347.195 162.883C347.716 159.723 348.733 156.648 352.38 155.794C353.553 155.52 353.897 156.945 354.057 158.346ZM342.945 166.638C342.314 168.311 340.966 168.675 339.488 168.534C337.934 168.385 336.634 167.648 337.042 165.854C337.42 164.195 338.871 163.866 340.405 164.016C342.04 164.175 343.016 164.985 342.945 166.638ZM352.77 151.308C350.497 146.298 350.497 146.298 352.654 140.583C356.957 144.37 354.853 147.865 352.77 151.308Z" fill="#545454"/>
</svg>
