
<svg xmlns="http://www.w3.org/2000/svg" xmlns:xlink="http://www.w3.org/1999/xlink" preserveAspectRatio="xMidYMid meet" version="1.0" viewBox="-1.5 -0.6 372.8 501.7" zoomAndPan="magnify" style="fill: rgb(0, 0, 0);" original_string_length="8453"><g id="__id40_s0slnukkhl"><path d="M331.5921,475.85501c-10.11551,14.26263-25.29416,18.74387-41.45804,22.71777 c-10.4231,2.56281-19.79584,1.39868-29.33594-1.31271c-8.79372-2.49902-13.84467-10.30978-16.40498-17.89212 c-4.85735-14.38342-11.12875-28.24731-15.63055-42.66129c-4.4231-14.1611-9.8373-27.93341-14.68153-41.9122 c-4.62846-13.3584-8.02608-27.19766-14.47842-39.91122c-1.91753-3.77805-3.17776-7.77548-3.20627-12.11353 c-0.01176-1.7861,0.06242-4.28851-2.1152-4.61353c-2.38118-0.35535-4.66103,0.9574-5.71817,3.34424 c-5.83624,13.177-14.65936,24.66855-21.95535,36.95486c-6.33427,10.66757-14.78918,20.57748-23.0618,30.2171 c-1.70581,1.9874-14.02924-1.21661-16.8492-3.96417c-11.48295-11.18781-15.59438-25.25458-16.06754-40.76053 c-0.40576-15.97073,3.55458-31.45993,4.98266-47.19272c1.17747-12.97144,2.20386-26.02335,4.9338-38.64941 c2.64897-12.25012-0.25151-24.95465,4.35615-36.92162c1.16526-3.026,1.19059-6.94292,0.46819-10.16525 c-3.2782-14.61911,2.14369-28.4095,3.47089-42.57648c0.5876-6.27187-1.41315-13.30977,5.45627-17.55305 c2.71365-1.67619,1.04945-7.10826,5.42369-6.83481c4.95145,0.30963,10.52849-1.12433,14.74396,1.65334 c6.31483,4.16119,13.54613,5.42709,20.32236,8.04712c10.35388,4.00354,18.71379,11.9007,29.25948,15.21146 c17.45851,5.48114,32.88643,16.12386,51.05603,19.685c7.41992,1.4543,13.63071,5.8808,19.76959,9.64459 c14.87738,9.12212,31.79535,15.94041,40.91476,32.50758c1.98401,3.60434,3.55051,7.12003,2.77563,11.16449 c-2.12244,11.0824-8.35315,23.31216-21.12527,27.50162c-17.49246,5.73743-35.82852,6.65842-53.19704,12.46478 c-7.38872,2.47006-4.94511,5.44113-2.25272,8.50784c9.68486,11.03217,16.95235,23.71771,25.28648,35.67291 c8.95203,12.8407,20.69598,23.23911,31.04398,34.85529c14.30157,16.05487,29.90045,31.37036,38.84662,51.37247 C344.00192,447.62961,341.13309,462.40182,331.5921,475.85501z" style="fill: rgb(255, 222, 89);"/></g><g id="__id41_s0slnukkhl"><path d="M193.91931,78.79327c-1.96051-2.80573,0.80377-4.50592,2.3454-5.83582 c9.55548-8.24475,19.11456-16.50879,29.04736-24.28766c9.52832-7.46179,19.26379-14.72046,29.97101-20.47614 c2.52594-1.35822,5.5553-5.07587,8.22284-1.41455c2.67883,3.67786-0.20947,7.04565-3.19861,9.38928 c-10.56061,8.28027-21.23474,16.41608-31.89032,24.57446c-8.35315,6.39508-16.7298,12.75854-25.12592,19.09601 c-1.46649,1.10693-3.08276,2.01526-4.91931,3.20245C196.88397,81.6571,195.07776,80.45135,193.91931,78.79327z M224.2395,120.60889 c-4.45337,0.96851-5.80682,3.81403-5.86792,7.95868c-0.0592,4.03613,2.65759,3.97369,5.35089,3.83209 c22.37061-1.1759,44.112-6.9884,66.36542-9.06421c2.34863-0.21918,4.01959-1.96619,4.01239-4.2157 c-0.01086-3.38928-3.0932-2.36652-4.70538-2.12219c-10.41992,1.57776-20.88324,1.69763-31.37195,1.48773 C246.70514,118.28766,235.40399,118.18091,224.2395,120.60889z M149.59015,137.00574 c-2.54401-1.53168-5.57477-4.75555-8.2337-1.12073c-2.50012,3.41754,0.82599,5.81409,3.32391,7.69495 c4.62756,3.48383,9.25055,7.02301,14.17395,10.05579c34.30548,21.13593,68.70953,42.11285,103.03668,63.21393 c16.98309,10.43939,33.87079,21.03412,52.44391,32.57928c-6.72559,1.46021-11.48163,2.79529-16.32904,3.49304 c-21.2442,3.05743-41.60095,9.23773-61.29272,17.56458c-11.76477,4.97479-11.73309,5.96539-2.55035,15.25806 c0.73547,0.74414,1.35297,1.61084,1.98126,2.45337c17.97375,24.09631,37.57324,46.86682,57.63324,69.2005 c19.67865,21.90924,38.9502,44.33954,63.09766,61.72412c1.73883,1.25232,3.15198,4.34235,5.85162,1.74786 c2.56305-2.46283,0.93097-5.11902-0.80157-6.98975c-3.20264-3.45776-7.04401-6.32184-10.2702-9.7608 c-24.31708-25.92542-48.6839-51.80652-72.75354-77.96106c-12.80609-13.91522-26.57159-27.00494-37.97583-42.17096 c2.46167-2.67358,5.4834-2.90631,8.23053-3.62604c17.8186-4.66846,35.37164-10.44934,53.72992-12.88159 c7.96588-1.0556,14.98145-4.94672,22.23987-7.96161c5.34003-2.2179,6.03119-7.29242,1.93335-10.39148 c-29.84711-22.57208-60.43964-43.85931-93.47894-61.784C204.9173,171.79272,177.55725,153.84338,149.59015,137.00574z M146.50287,115.56744c9.74866-0.50848,17.14459,4.28333,24.0683,10.31879c5.04822,4.40027,5.75024,9.58942,3.65045,15.65887 c-0.53918,1.5592,0.47406,3.09045,2.22284,3.68079c1.78955,0.60388,2.8313-0.3006,3.89203-1.7262 c4.01648-5.39789,5.42914-22.61194,1.78412-27.8667c-5.09259-7.34143-11.70416-12.77802-20.67523-14.88348 c-29.24451-6.86377-57.53821,16.64813-55.20227,46.5694c0.99335,12.72418,5.97107,24.09656,18.1203,30.60431 c2.013,1.07819,4.96228,3.44037,6.71112-0.27252c1.31451-2.7915-0.27686-5.05573-2.86975-6.52679 c-2.98187-1.69159-5.85974-3.41345-7.80579-6.46387c-7.45563-11.68585-6.62378-24.13318-0.7373-35.4212 C124.8764,119.23804,135.37909,115.85962,146.50287,115.56744z M86.33875,12.07904 c5.70642,15.56976,11.35583,31.16364,17.36212,46.61847c1.64478,4.23267,3.94904,11.06592,9.04523,8.97058 c5.04236-2.07312,1.84473-8.6322,0.21808-12.83136C106.40369,37.90045,99.45966,21.1123,92.60919,4.28912 c-0.88116-2.16364-1.76099-4.86548-4.84918-4.18085c-3.06335,0.6792-2.6897,3.43854-2.66437,6.69409 C85.37067,8.00745,85.62402,10.12787,86.33875,12.07904z M69.03534,120.1167c1.02551-3.64551,0.6098-7.07428-2.58832-9.13342 c-2.57568-1.65784-5.73676-2.48181-8.71912-3.41907c-15.97888-5.02228-32.89093-6.85156-48.20709-14.18622 c-3.00226-1.43781-6.76361-3.4422-8.92987,0.88843c-2.07178,4.14124,1.76685,6.17322,4.37872,8.10321 c17.4671,12.90668,38.59424,15.72125,58.74695,21.1698C66.51941,123.92053,68.24554,122.9256,69.03534,120.1167z M131.01025,199.22308c1.08563-2.87805-0.25916-5.17786-2.83533-6.59778c-1.59363-0.87848-3.37543-1.41766-5.07629-2.09912 c-27.73547-11.10907-36.79565-42.12323-28.81659-63.25098c9.00989-23.85864,27.09949-36.43402,52.69623-38.10114 c28.58411-1.86169,55.47369,22.87653,50.19751,51.74969c-0.49939,2.73267,0.28137,5.72137,0.60254,8.57617 c0.37634,3.34241,3.21936,4.16681,5.72223,4.55359c3.42206,0.52881,3.51434-2.47662,3.75812-4.77075 c0.52838-4.9754,0.87488-9.97028,1.37695-15.91125c-0.60565-15.63892-7.35162-28.52802-19.45337-40.38843 c-19.68683-19.29419-53.3689-19.65491-74.17847-4.76031c-25.30139,18.10919-38.64801,42.11597-29.64984,74.8443 c4.55023,16.54907,23.76294,35.55328,40.19733,37.43231C127.50952,200.72333,129.96808,201.98718,131.01025,199.22308z M370.45996,427.76318c-0.91919-4.4552-4.90979-4.34369-8.3255-3.90741c-6.82104,0.87146-13.40369,2.79669-19.79944,5.3468 c-20.11023,8.01819-37.66779,19.96136-53.14728,34.96161c-3.54327,3.43378-4.95776,4.14691-7.31818-1.22614 c-8.25903-18.79791-17.31689-37.24323-25.6687-56.00159c-15.6554-35.16309-31.922-69.96478-53.34399-102.13489 c-4.2381-6.36487-6.98206-5.64648-12.01587-0.93073c-17.46259,16.35907-27.94086,37.49542-40.27014,57.37335 c-4.40503,7.10168-8.48114,14.40741-12.70746,21.61993c-0.59076-0.19543-1.18158-0.39105-1.77325-0.58673 c0-1.28986-0.00629-2.57996,0.0014-3.86987c0.10992-19.01978,3.54144-37.75891,4.79358-56.68372 c1.89758-28.6651,3.88293-57.32428,5.80457-85.98779c1.46741-21.89606-0.69574-43.72021-1.4715-65.5686 c-0.09546-2.69196-0.45642-6.61835-3.90515-6.88843c-3.37549-0.2644-3.55371,3.05518-3.5166,5.84937 c0.31213,23.7066-0.87573,47.31531-3.18634,70.93713c-3.51343,35.92059-5.43188,71.9834-9.11084,107.90424 c-1.20459,11.75977-3.04749,23.59961-1.82977,35.49786c0.62604,6.10986,3.36096,10.93469,9.74817,12.99561 c6.15063,1.98444,8.84985-2.71075,11.41058-6.33044c12.02216-16.99304,23.72449-34.21411,35.45447-51.41229 c5.8421-8.56525,11.49963-17.25677,17.92395-26.91919c12.45911,25.33575,24.24835,49.15002,35.89459,73.03375 c14.31512,29.35559,26.3576,59.79547,42.18225,88.42914c1.23126,2.22778,1.61444,4.10327,0.52197,6.5896 c-1.40906,3.20673,0.53247,5.8288,3.0932,7.3053c2.82495,1.62842,4.11957-1.46228,5.66571-2.98193 c18.64142-18.32275,40.18964-32.34064,63.93811-43.02881c5.02203-2.26044,10.53076-3.42139,15.6369-5.52185 C368.40808,434.2818,371.27875,431.73486,370.45996,427.76318z M85.60004,194.84454 c-3.04974-1.46899-5.44043,0.06763-7.69495,2.24683c-15.97253,15.43768-28.40497,33.68372-41.21558,51.63776 c-1.68549,2.36267-1.51947,4.19537,0.69708,6.07983c2.38519,2.02838,3.35419-0.53015,4.34393-1.49432 c12.36548-12.04272,24.75177-24.07166,36.797-36.43085c4.34344-4.45679,8.73761-9.22137,9.74634-17.63196 C88.25989,198.51813,88.02869,196.0141,85.60004,194.84454z" style="fill: rgb(84, 84, 84);"/></g></svg>